<svg xmlns="http://www.w3.org/2000/svg" width="1920" height="452" viewBox="0 0 1920 452" fill="none"><rect width="1920" height="452" fill="url(#paint0_linear_325_60)"/><g clip-path="url(#clip0_325_60)"><circle cx="342" cy="249" r="156" fill="#D5ECFD"/><circle cx="342" cy="249" r="199" stroke="#D5ECFD" stroke-width="2"/><path d="M119.807 196.767C66.9288 195.771 45.8711 156.931 45.8711 156.931" stroke="#C5DCED" stroke-width="16" stroke-linecap="round"/><path d="M123.208 165.042C89.9678 164.416 76.7305 140 76.7305 140" stroke="#F5F7FA" stroke-width="16" stroke-linecap="round"/><circle cx="186" cy="60" r="28" fill="#D5ECFD"/><circle cx="1478" cy="415" r="80" fill="#EFF7FC"/><circle cx="1878" cy="444" r="153" stroke="#D5ECFD" stroke-width="2"/><circle cx="1878" cy="444" r="206" stroke="#D5ECFD" stroke-width="2"/><circle cx="1878" cy="444" r="257" stroke="#D5ECFD" stroke-width="2"/><circle cx="1878" cy="444" r="103" stroke="#D5ECFD" stroke-width="2"/><path d="M1827.77 59.1949C1826.77 112.073 1787.93 133.131 1787.93 133.131" stroke="#D5ECFD" stroke-width="16" stroke-linecap="round"/><path d="M1796.04 55.7918C1795.42 89.0322 1771 102.27 1771 102.27" stroke="#F5F7FA" stroke-width="16" stroke-linecap="round"/><path fill-rule="evenodd" clip-rule="evenodd" d="M1582.71 147.74C1587.03 143.424 1592.88 141 1598.99 141C1605.09 141 1610.94 143.425 1615.26 147.742C1619.58 152.058 1622 157.912 1622 164.015C1622 170.119 1619.57 175.973 1615.26 180.288L1577.29 218.26C1572.97 222.576 1567.12 225 1561.01 225C1554.91 225 1549.06 222.575 1544.74 218.258C1540.42 213.942 1538 208.088 1538 201.985C1538 195.881 1540.43 190.027 1544.74 185.712L1582.71 147.74V147.74ZM1609.83 174.861L1593.56 191.135L1571.86 169.437L1588.14 153.167C1589.56 151.716 1591.25 150.561 1593.12 149.768C1594.98 148.976 1596.99 148.562 1599.02 148.551C1601.05 148.539 1603.06 148.93 1604.94 149.701C1606.81 150.472 1608.52 151.608 1609.96 153.043C1611.39 154.478 1612.53 156.183 1613.3 158.06C1614.07 159.937 1614.46 161.948 1614.45 163.977C1614.44 166.006 1614.02 168.013 1613.23 169.881C1612.44 171.75 1611.29 173.442 1609.83 174.861H1609.83Z" fill="#EEF6FD"/></g><defs><linearGradient id="paint0_linear_325_60" x1="2.05218e-06" y1="226.384" x2="1920" y2="226.384" gradientUnits="userSpaceOnUse"><stop offset="0.14409" stop-color="#F5F7FA" stop-opacity="0"/><stop offset="0.321177" stop-color="#F5F7FA"/><stop offset="0.696183" stop-color="#F5F7FA"/><stop offset="0.90452" stop-color="#F5F7FA" stop-opacity="0"/></linearGradient><clipPath id="clip0_325_60"><rect width="1920" height="423" fill="white" transform="translate(0 29)"/></clipPath></defs></svg>